{
  "accessors": [
    {
      "bufferView": 2,
      "componentType": 5126,
      "count": 2859,
      "max": [
        0.27079999446868896,
        -0.23376999795436859,
        0.24788099527359009
      ],
      "min": [
        -0.27079999446868896,
        -1,
        -0.29371801018714905
      ],
      "type": "VEC3"
    },
    {
      "bufferView": 2,
      "byteOffset": 34308,
      "componentType": 5126,
      "count": 2859,
      "max": [
        1,
        1,
        1
      ],
      "min": [
        -1,
        -1,
        -1
      ],
      "type": "VEC3"
    },
    {
      "bufferView": 3,
      "componentType": 5126,
      "count": 2859,
      "max": [
        1,
        0.99870997667312622,
        1,
        1
      ],
      "min": [
        -1,
        -0.99870997667312622,
        -1,
        -1
      ],
      "type": "VEC4"
    },
    {
      "bufferView": 1,
      "componentType": 5126,
      "count": 2859,
      "max": [
        0.65625,
        1
      ],
      "min": [
        0.34375,
        1.4901200273698123e-08
      ],
      "type": "VEC2"
    },
    {
      "bufferView": 0,
      "componentType": 5125,
      "count": 14400,
      "max": [
        2858
      ],
      "min": [
        0
      ],
      "type": "SCALAR"
    },
    {
      "bufferView": 2,
      "byteOffset": 68616,
      "componentType": 5126,
      "count": 149,
      "max": [
        0.030499100685119629,
        -0.069703899323940277,
        0.0075804498046636581
      ],
      "min": [
        -0.030499199405312538,
        -0.23655399680137634,
        -0.053417801856994629
      ],
      "type": "VEC3"
    },
    {
      "bufferView": 2,
      "byteOffset": 70404,
      "componentType": 5126,
      "count": 149,
      "max": [
        0.99969160556793213,
        1,
        0.99969160556793213
      ],
      "min": [
        -0.99969154596328735,
        -1,
        -0.99969154596328735
      ],
      "type": "VEC3"
    },
    {
      "bufferView": 3,
      "byteOffset": 45744,
      "componentType": 5126,
      "count": 149,
      "max": [
        1,
        0.99891698360443115,
        1,
        1
      ],
      "min": [
        -1,
        -0.99891698360443115,
        -1,
        1
      ],
      "type": "VEC4"
    },
    {
      "bufferView": 1,
      "byteOffset": 22872,
      "componentType": 5126,
      "count": 149,
      "max": [
        0.65625,
        1
      ],
      "min": [
        0.34375,
        1.4901200273698123e-08
      ],
      "type": "VEC2"
    },
    {
      "bufferView": 0,
      "byteOffset": 57600,
      "componentType": 5125,
      "count": 672,
      "max": [
        148
      ],
      "min": [
        0
      ],
      "type": "SCALAR"
    },
    {
      "bufferView": 2,
      "byteOffset": 72192,
      "componentType": 5126,
      "count": 117,
      "max": [
        0.01137279998511076,
        -0.22390000522136688,
        -0.011545900255441666
      ],
      "min": [
        -0.011372899636626244,
        -0.42033499479293823,
        -0.034291598945856094
      ],
      "type": "VEC3"
    },
    {
      "bufferView": 2,
      "byteOffset": 73596,
      "componentType": 5126,
      "count": 117,
      "max": [
        1,
        1,
        1
      ],
      "min": [
        -1,
        -1,
        -1
      ],
      "type": "VEC3"
    },
    {
      "bufferView": 3,
      "byteOffset": 48128,
      "componentType": 5126,
      "count": 117,
      "max": [
        1,
        0.99922698736190796,
        1,
        1
      ],
      "min": [
        -1,
        -0.99922698736190796,
        -1,
        1
      ],
      "type": "VEC4"
    },
    {
      "bufferView": 1,
      "byteOffset": 24064,
      "componentType": 5126,
      "count": 117,
      "max": [
        0.65625,
        1
      ],
      "min": [
        0.34375,
        1.4901200273698123e-08
      ],
      "type": "VEC2"
    },
    {
      "bufferView": 0,
      "byteOffset": 60288,
      "componentType": 5125,
      "count": 480,
      "max": [
        116
      ],
      "min": [
        0
      ],
      "type": "SCALAR"
    },
    {
      "bufferView": 2,
      "byteOffset": 75000,
      "componentType": 5126,
      "count": 425,
      "max": [
        0.01163840014487505,
        -0.46800100803375244,
        0.38857999444007874
      ],
      "min": [
        -0.011638499796390533,
        -0.55668801069259644,
        0.13245700299739838
      ],
      "type": "VEC3"
    },
    {
      "bufferView": 2,
      "byteOffset": 80100,
      "componentType": 5126,
      "count": 425,
      "max": [
        1,
        1,
        1
      ],
      "min": [
        -1,
        -1,
        -1
      ],
      "type": "VEC3"
    },
    {
      "bufferView": 3,
      "byteOffset": 50000,
      "componentType": 5126,
      "count": 425,
      "max": [
        1,
        1,
        1,
        1
      ],
      "min": [
        -0.89904898405075073,
        -1,
        -1,
        -1
      ],
      "type": "VEC4"
    },
    {
      "bufferView": 1,
      "byteOffset": 25000,
      "componentType": 5126,
      "count": 425,
      "max": [
        0.65625,
        1
      ],
      "min": [
        0.34375,
        1.4901200273698123e-08
      ],
      "type": "VEC2"
    },
    {
      "bufferView": 0,
      "byteOffset": 62208,
      "componentType": 5125,
      "count": 2112,
      "max": [
        424
      ],
      "min": [
        0
      ],
      "type": "SCALAR"
    },
    {
      "bufferView": 2,
      "byteOffset": 85200,
      "componentType": 5126,
      "count": 642,
      "max": [
        0.36566099524497986,
        1,
        0.34274300932884216
      ],
      "min": [
        -0.36566099524497986,
        -0.42033499479293823,
        -0.38857999444007874
      ],
      "type": "VEC3"
    },
    {
      "bufferView": 2,
      "byteOffset": 92904,
      "componentType": 5126,
      "count": 642,
      "max": [
        1,
        0.52929025888442993,
        1
      ],
      "min": [
        -1,
        -0.58013027906417847,
        -1
      ],
      "type": "VEC3"
    },
    {
      "bufferView": 3,
      "byteOffset": 56800,
      "componentType": 5126,
      "count": 642,
      "max": [
        1,
        0.99727398157119751,
        1,
        1
      ],
      "min": [
        -1,
        -0.99727398157119751,
        -1,
        -1
      ],
      "type": "VEC4"
    },
    {
      "bufferView": 1,
      "byteOffset": 28400,
      "componentType": 5126,
      "count": 642,
      "max": [
        0.65625,
        1
      ],
      "min": [
        0.34375,
        1.4901200273698123e-08
      ],
      "type": "VEC2"
    },
    {
      "bufferView": 0,
      "byteOffset": 70656,
      "componentType": 5125,
      "count": 2496,
      "max": [
        641
      ],
      "min": [
        0
      ],
      "type": "SCALAR"
    }
  ],
  "asset": {
    "extras": {
      "author": "Victoria (https://sketchfab.com/vikirose)",
      "license": "CC-BY-4.0 (http://creativecommons.org/licenses/by/4.0/)",
      "source": "https://sketchfab.com/models/d3bf8831255e4ed9851a29216406307a",
      "title": "Oil Lamp"
    },
    "generator": "Sketchfab-3.19.6",
    "version": "2.0"
  },
  "bufferViews": [
    {
      "buffer": 0,
      "byteLength": 80640,
      "byteOffset": 0,
      "name": "floatBufferViews",
      "target": 34963
    },
    {
      "buffer": 0,
      "byteLength": 33536,
      "byteOffset": 80640,
      "byteStride": 8,
      "name": "floatBufferViews",
      "target": 34962
    },
    {
      "buffer": 0,
      "byteLength": 100608,
      "byteOffset": 114176,
      "byteStride": 12,
      "name": "floatBufferViews",
      "target": 34962
    },
    {
      "buffer": 0,
      "byteLength": 67072,
      "byteOffset": 214784,
      "byteStride": 16,
      "name": "floatBufferViews",
      "target": 34962
    }
  ],
  "buffers": [
    {
      "byteLength": 281856,
      "uri": "scene.bin"
    }
  ],
  "images": [
    {
      "uri": "textures/flame_emissive.jpeg"
    },
    {
      "uri": "textures/flame_normal.jpeg"
    },
    {
      "uri": "textures/flame_metallicRoughness.png"
    },
    {
      "uri": "textures/flame_baseColor.jpeg"
    },
    {
      "uri": "textures/glass_baseColor.png"
    },
    {
      "uri": "textures/glass_metallicRoughness.png"
    },
    {
      "uri": "textures/glass_normal.jpeg"
    },
    {
      "uri": "textures/brass_baseColor.jpeg"
    },
    {
      "uri": "textures/brass_metallicRoughness.png"
    },
    {
      "uri": "textures/brass_normal.jpeg"
    },
    {
      "uri": "textures/wick1_baseColor.jpeg"
    },
    {
      "uri": "textures/wick1_metallicRoughness.png"
    },
    {
      "uri": "textures/wick1_normal.jpeg"
    }
  ],
  "materials": [
    {
      "alphaMode": "BLEND",
      "doubleSided": true,
      "name": "glass",
      "normalTexture": {
        "index": 6,
        "scale": 1,
        "texCoord": 0
      },
      "pbrMetallicRoughness": {
        "baseColorFactor": [
          0.47682506826204513,
          0.57805960048867688,
          0.39115632343570894,
          1
        ],
        "baseColorTexture": {
          "index": 4,
          "texCoord": 0
        },
        "metallicFactor": 0.038300304899999998,
        "metallicRoughnessTexture": {
          "index": 5,
          "texCoord": 0
        },
        "roughnessFactor": 0.61147103660000002
      }
    },
    {
      "doubleSided": true,
      "name": "brass",
      "normalTexture": {
        "index": 9,
        "scale": 1,
        "texCoord": 0
      },
      "pbrMetallicRoughness": {
        "baseColorFactor": [
          1,
          1,
          1,
          1
        ],
        "baseColorTexture": {
          "index": 7,
          "texCoord": 0
        },
        "metallicFactor": 1,
        "metallicRoughnessTexture": {
          "index": 8,
          "texCoord": 0
        },
        "roughnessFactor": 0.83708079270000002
      }
    },
    {
      "doubleSided": true,
      "name": "wick1",
      "normalTexture": {
        "index": 12,
        "scale": 1,
        "texCoord": 0
      },
      "pbrMetallicRoughness": {
        "baseColorFactor": [
          0.87976371949999999,
          0.87976371949999999,
          0.87976371949999999,
          1
        ],
        "baseColorTexture": {
          "index": 10,
          "texCoord": 0
        },
        "metallicFactor": 0,
        "metallicRoughnessTexture": {
          "index": 11,
          "texCoord": 0
        },
        "roughnessFactor": 1
      }
    },
    {
      "doubleSided": true,
      "emissiveFactor": [
        1,
        1,
        1
      ],
      "emissiveTexture": {
        "index": 0,
        "texCoord": 0
      },
      "name": "flame",
      "normalTexture": {
        "index": 1,
        "scale": 1,
        "texCoord": 0
      },
      "pbrMetallicRoughness": {
        "baseColorFactor": [
          0.80659298779999999,
          0.80659298779999999,
          0.80659298779999999,
          1
        ],
        "baseColorTexture": {
          "index": 3,
          "texCoord": 0
        },
        "metallicFactor": 1,
        "metallicRoughnessTexture": {
          "index": 2,
          "texCoord": 0
        },
        "roughnessFactor": 1
      }
    }
  ],
  "meshes": [
    {
      "name": "defaultMaterial",
      "primitives": [
        {
          "attributes": {
            "NORMAL": 1,
            "POSITION": 0,
            "TANGENT": 2,
            "TEXCOORD_0": 3
          },
          "indices": 4,
          "material": 1,
          "mode": 4
        }
      ]
    },
    {
      "name": "defaultMaterial",
      "primitives": [
        {
          "attributes": {
            "NORMAL": 6,
            "POSITION": 5,
            "TANGENT": 7,
            "TEXCOORD_0": 8
          },
          "indices": 9,
          "material": 3,
          "mode": 4
        }
      ]
    },
    {
      "name": "defaultMaterial",
      "primitives": [
        {
          "attributes": {
            "NORMAL": 11,
            "POSITION": 10,
            "TANGENT": 12,
            "TEXCOORD_0": 13
          },
          "indices": 14,
          "material": 2,
          "mode": 4
        }
      ]
    },
    {
      "name": "defaultMaterial",
      "primitives": [
        {
          "attributes": {
            "NORMAL": 16,
            "POSITION": 15,
            "TANGENT": 17,
            "TEXCOORD_0": 18
          },
          "indices": 19,
          "material": 1,
          "mode": 4
        }
      ]
    },
    {
      "name": "defaultMaterial",
      "primitives": [
        {
          "attributes": {
            "NORMAL": 21,
            "POSITION": 20,
            "TANGENT": 22,
            "TEXCOORD_0": 23
          },
          "indices": 24,
          "material": 0,
          "mode": 4
        }
      ]
    }
  ],
  "nodes": [
    {
      "children": [
        1
      ],
      "name": "RootNode (gltf orientation matrix)",
      "rotation": [
        -0.70710678118654746,
        -0,
        -0,
        0.70710678118654757
      ]
    },
    {
      "children": [
        2
      ],
      "name": "RootNode (model correction matrix)"
    },
    {
      "children": [
        3,
        5,
        7,
        9,
        11
      ],
      "matrix": [
        1,
        0,
        0,
        0,
        0,
        -4.3711390063094768e-08,
        0.999999999999999,
        0,
        0,
        -0.999999999999999,
        -4.3711390063094768e-08,
        0,
        0,
        0,
        0,
        1
      ],
      "name": "Collada visual scene group"
    },
    {
      "children": [
        4
      ],
      "name": "base"
    },
    {
      "mesh": 0,
      "name": "defaultMaterial"
    },
    {
      "children": [
        6
      ],
      "name": "flame1"
    },
    {
      "mesh": 1,
      "name": "defaultMaterial"
    },
    {
      "children": [
        8
      ],
      "name": "wick"
    },
    {
      "mesh": 2,
      "name": "defaultMaterial"
    },
    {
      "children": [
        10
      ],
      "name": "key"
    },
    {
      "mesh": 3,
      "name": "defaultMaterial"
    },
    {
      "children": [
        12
      ],
      "name": "glassbit"
    },
    {
      "mesh": 4,
      "name": "defaultMaterial"
    }
  ],
  "samplers": [
    {
      "magFilter": 9729,
      "minFilter": 9987,
      "wrapS": 10497,
      "wrapT": 10497
    }
  ],
  "scene": 0,
  "scenes": [
    {
      "name": "OSG_Scene",
      "nodes": [
        0
      ]
    }
  ],
  "textures": [
    {
      "sampler": 0,
      "source": 0
    },
    {
      "sampler": 0,
      "source": 1
    },
    {
      "sampler": 0,
      "source": 2
    },
    {
      "sampler": 0,
      "source": 3
    },
    {
      "sampler": 0,
      "source": 4
    },
    {
      "sampler": 0,
      "source": 5
    },
    {
      "sampler": 0,
      "source": 6
    },
    {
      "sampler": 0,
      "source": 7
    },
    {
      "sampler": 0,
      "source": 8
    },
    {
      "sampler": 0,
      "source": 9
    },
    {
      "sampler": 0,
      "source": 10
    },
    {
      "sampler": 0,
      "source": 11
    },
    {
      "sampler": 0,
      "source": 12
    }
  ]
}

